0.06m3min_grf.mot
version=1
nRows=17
nColumns 19
inDegrees=yes
endheader
time	1_ground_force_vx	1_ground_force_vy	1_ground_force_vz	1_ground_force_px	1_ground_force_py	1_ground_force_pz	1_ground_torque_x	1_ground_torque_y	1_ground_torque_z	2_ground_force_vx	2_ground_force_vy	2_ground_force_vz	2_ground_force_px	2_ground_force_py	2_ground_force_pz	2_ground_torque_x	2_ground_torque_y	2_ground_torque_z
            0.005000	           18.240024	         1345.422165	         -100.711031	           -0.213709	            0.006041	           -0.361956	            0.032347	            2.385955	           -0.178600	            5.668183	         1050.965140	          107.974470	           -0.223934	            0.005564	           -0.666467	           -0.006269	           -1.162402	           -0.119423
            0.005500	           19.064279	         1349.208328	         -100.788566	           -0.213898	            0.006040	           -0.361923	            0.032205	            2.279168	           -0.170258	            5.287985	         1052.437581	          107.792173	           -0.223753	            0.005564	           -0.666381	           -0.006582	           -1.310067	           -0.134179
            0.006000	           19.569195	         1351.910292	         -100.319657	           -0.213978	            0.006040	           -0.361889	            0.032809	            2.266553	           -0.168192	            4.763126	         1055.015486	          107.332310	           -0.223606	            0.005565	           -0.666452	           -0.006283	           -1.391611	           -0.141576
            0.006500	           20.393516	         1355.336106	         -100.398737	           -0.214106	            0.006040	           -0.361827	            0.035728	            2.374469	           -0.175893	            3.962545	         1056.118748	          107.008087	           -0.223754	            0.005563	           -0.666128	           -0.005402	           -1.439712	           -0.145874
            0.007000	           20.989489	         1357.138105	         -100.254916	           -0.214270	            0.006040	           -0.361885	            0.039324	            2.542584	           -0.187827	            3.391522	         1058.511993	          106.594522	           -0.223593	            0.005564	           -0.666240	           -0.004721	           -1.473514	           -0.148386
            0.007500	           21.494584	         1359.479524	          -99.741700	           -0.214346	            0.006040	           -0.361931	            0.043248	            2.735299	           -0.200682	            2.918165	         1059.801021	          106.130040	           -0.223488	            0.005564	           -0.666036	           -0.004321	           -1.569411	           -0.157163
            0.008000	           21.998871	         1361.281749	          -99.597665	           -0.214368	            0.006040	           -0.361908	            0.044697	            2.765845	           -0.202362	            2.161777	         1061.641015	          105.808425	           -0.223519	            0.005563	           -0.665937	           -0.003261	           -1.601582	           -0.159622
            0.008500	           22.365757	         1363.624321	          -99.359236	           -0.214570	            0.006040	           -0.361937	            0.044922	            2.738879	           -0.199566	            1.500979	         1062.929701	          105.250166	           -0.223445	            0.005564	           -0.665946	           -0.002490	           -1.763011	           -0.174571
            0.009000	           22.777899	         1365.427315	          -99.398397	           -0.214584	            0.006041	           -0.362017	            0.045232	            2.711434	           -0.197383	            1.168131	         1064.219571	          104.691768	           -0.223250	            0.005563	           -0.665690	           -0.002088	           -1.902421	           -0.187149
            0.009500	           23.420591	         1367.408169	          -98.887069	           -0.214770	            0.006041	           -0.362037	            0.046537	            2.717084	           -0.196492	            0.601862	         1065.323177	          104.508237	           -0.223181	            0.005564	           -0.665652	           -0.001125	           -1.991922	           -0.195408
            0.010000	           23.741979	         1368.488584	          -98.608084	           -0.214812	            0.006041	           -0.362134	            0.048581	            2.800226	           -0.201774	           -0.248390	         1067.163927	          103.811252	           -0.223164	            0.005564	           -0.665676	            0.000460	           -1.977720	           -0.192388
            0.010500	           24.384962	         1371.370010	          -97.909483	           -0.214861	            0.006041	           -0.362048	            0.053759	            3.023317	           -0.215851	           -0.579266	         1067.901726	          103.203948	           -0.223077	            0.005564	           -0.665528	            0.001108	           -2.042912	           -0.197431
            0.011000	           24.844318	         1371.909095	          -97.495587	           -0.214972	            0.006041	           -0.362114	            0.057017	            3.148514	           -0.223751	           -1.239399	         1069.006088	          102.645031	           -0.222978	            0.005563	           -0.665402	            0.002422	           -2.088998	           -0.200584
            0.011500	           25.349287	         1372.448583	          -97.173540	           -0.215030	            0.006041	           -0.362142	            0.058872	            3.187414	           -0.225679	           -1.757591	         1069.742297	          102.225533	           -0.222765	            0.005564	           -0.665272	            0.003604	           -2.193416	           -0.209605
            0.012000	           25.441669	         1374.249549	          -96.753323	           -0.215137	            0.006041	           -0.362139	            0.058333	            3.150876	           -0.221836	           -2.140153	         1071.770234	          101.200502	           -0.222792	            0.005564	           -0.665344	            0.004637	           -2.322143	           -0.219265
            0.012500	           25.671730	         1374.608613	          -96.385498	           -0.215166	            0.006042	           -0.362237	            0.057632	            3.085917	           -0.216380	           -2.890643	         1071.953693	          100.685262	           -0.222788	            0.005564	           -0.665319	            0.006469	           -2.398979	           -0.225329
            0.013000	           25.764163	         1375.508416	          -96.015014	           -0.215243	            0.006042	           -0.362305	            0.058118	            3.102809	           -0.216586	           -3.407629	         1072.322502	           99.982880	           -0.222702	            0.005563	           -0.665078	            0.007733	           -2.433581	           -0.226906
